<!DOCTYPE svg PUBLIC "-//W3C//DTD SVG 1.1//EN" "http://www.w3.org/Graphics/SVG/1.1/DTD/svg11.dtd">
<!-- Uploaded to: SVG Repo, www.svgrepo.com, Transformed by: SVG Repo Mixer Tools -->
<svg fill="#006636" version="1.1" id="Layer_1" xmlns="http://www.w3.org/2000/svg" xmlns:xlink="http://www.w3.org/1999/xlink" viewBox="0 0 382.392 382.392" xml:space="preserve" width="800px" height="800px">
<g id="SVGRepo_bgCarrier" stroke-width="0"/>
<g id="SVGRepo_tracerCarrier" stroke-linecap="round" stroke-linejoin="round"/>
<g id="SVGRepo_iconCarrier"> <g> <g> <path d="M271.887,165.066c2.847,0,6.031,0.763,9.549,2.289l3.026-7.956c-3.835-1.756-8.115-2.637-12.836-2.637 c-4.869,0-9.226,1.377-13.061,4.132c-3.835,2.755-6.81,6.569-8.929,11.459c-2.12,4.884-3.18,10.312-3.18,16.282 c0,5.678,1.556,10.04,4.674,13.097c3.108,3.057,7.491,4.582,13.143,4.582c4.756,0,9.149-1.024,13.189-3.072v-8.433 c-1.874,0.927-3.738,1.7-5.601,2.335c-1.859,0.635-3.855,0.952-5.99,0.952c-2.847,0-5.084-0.865-6.702-2.596 c-1.613-1.731-2.417-4.193-2.417-7.393c0-6.513,1.439-11.981,4.321-16.41C263.962,167.278,267.566,165.066,271.887,165.066z"/> <path d="M220.523,205.448h10.158l6.052-28.232c0.635-3.374,0.952-5.98,0.952-7.823c0-4.004-1.004-7.117-3.005-9.318 c-2.002-2.207-4.92-3.307-8.755-3.307c-2.97,0-5.832,0.86-8.576,2.575c-2.755,1.715-5.212,4.244-7.378,7.583h-0.343 c-0.978-6.774-4.644-10.158-10.982-10.158c-5.883,0-10.957,3.241-15.222,9.728h-0.389l0.911-8.863h-7.956l-10.199,47.821h10.199 l4.239-20.275c1.295-6.083,3.292-10.957,5.99-14.612c2.688-3.661,5.627-5.489,8.791-5.489c3.374,0,5.059,1.946,5.059,5.837 c0,1.295-0.246,3.123-0.737,5.489l-6.18,29.056h10.158l4.367-20.797c1.239-5.908,3.205-10.65,5.898-14.223 c2.698-3.574,5.601-5.361,8.709-5.361c3.492,0,5.233,1.859,5.233,5.576c0,1.096-0.271,3.016-0.819,5.75L220.523,205.448z"/> <polygon points="32.625,46.856 349.763,46.856 349.763,294.275 362.588,294.275 362.588,34.03 19.799,34.03 19.799,294.275 32.625,294.275 "/> <rect x="120.049" y="161.779" width="40.463" height="7.736"/> <path d="M302.085,162.967c3.548-3.057,6.052-5.709,7.516-7.946c1.464-2.232,2.191-4.634,2.191-7.188 c0-2.857-0.942-5.12-2.821-6.799c-1.889-1.674-4.367-2.509-7.444-2.509c-5.161,0-9.708,1.859-13.645,5.571l4.69,6.508 c2.708-2.473,5.069-3.707,7.091-3.707c0.676,0,1.229,0.205,1.664,0.614c0.43,0.415,0.655,1.029,0.655,1.853 c0,2.355-2.084,5.386-6.257,9.103l-12.18,10.998l-1.336,6.456h25.344l1.715-8.223h-12.36v-0.302L302.085,162.967z"/> <rect x="0" y="305.349" width="382.392" height="43.013"/> <rect x="120.049" y="179.075" width="40.463" height="7.782"/> <rect x="52.772" y="269.627" width="64.676" height="24.643"/> <polygon points="84.808,142.241 84.808,142.236 71.45,205.448 105.001,205.448 106.859,196.672 83.558,196.672 87.711,176.96 109.501,176.96 111.273,168.184 89.564,168.184 93.194,151.104 116.506,151.104 118.364,142.241 "/> </g> </g> </g>
</svg>