<!DOCTYPE svg PUBLIC "-//W3C//DTD SVG 1.1//EN" "http://www.w3.org/Graphics/SVG/1.1/DTD/svg11.dtd">
<!-- Uploaded to: SVG Repo, www.svgrepo.com, Transformed by: SVG Repo Mixer Tools -->
<svg fill="#006636" height="800px" width="800px" version="1.1" id="Layer_1" xmlns="http://www.w3.org/2000/svg" xmlns:xlink="http://www.w3.org/1999/xlink" viewBox="0 0 511.999 511.999" xml:space="preserve" stroke="#006636">
<g id="SVGRepo_bgCarrier" stroke-width="0"/>
<g id="SVGRepo_tracerCarrier" stroke-linecap="round" stroke-linejoin="round"/>
<g id="SVGRepo_iconCarrier"> <g> <g> <path d="M435.899,131.64c-20.775-50.156-58.989-89.725-108.087-112.2l3.46-8.353c1.694-4.091-0.248-8.78-4.34-10.474 c-4.089-1.694-8.779,0.249-10.474,4.34l-16.555,39.975c-42.146-15.328-87.833-14.365-129.53,2.906 c-44.183,18.302-78.594,52.712-96.895,96.895c-18.3,44.183-18.302,92.848,0,137.031c17.274,41.704,48.907,74.695,89.558,93.656 l-10.086,24.355c-0.001,0.003-0.003,0.006-0.005,0.011s-0.002,0.007-0.004,0.011l-6.468,15.618 c-1.694,4.091,0.248,8.78,4.34,10.474c1.003,0.416,2.042,0.612,3.065,0.612c3.146,0,6.131-1.864,7.41-4.951l3.467-8.372 c15.998,5.948,32.432,9.927,49.016,11.918v36.669h-46.557c-6.316,0-11.994,3.509-14.818,9.158l-14.739,29.478 c-1.243,2.485-1.111,5.436,0.351,7.8c1.461,2.363,4.042,3.802,6.82,3.802h188.125c2.778,0,5.358-1.439,6.82-3.802 c1.461-2.363,1.594-5.314,0.351-7.8l-14.739-29.479c-2.825-5.648-8.503-9.157-14.818-9.157h-46.557v-36.669 c19.176-2.303,38.155-7.243,56.486-14.836c52.624-21.797,93.609-62.782,115.407-115.407 C457.697,242.226,457.697,184.264,435.899,131.64z M124.51,96.996c14.602-14.365,31.956-25.952,51.409-34.096l1.894,3.976 c3.3,6.925,11.62,9.878,18.546,6.578l4.842-2.307c3.494-1.665,7.397-1.971,11.082-0.885l-0.655,1.848v0.001l-1.971,5.557 c-1.48,4.173,0.702,8.755,4.875,10.236c0.886,0.314,1.79,0.463,2.68,0.463c3.299,0,6.39-2.052,7.555-5.339l0.05-0.143 l24.068,0.333l13.673,4.85c-2.253,1.146-4.173,2.945-5.46,5.242c-2.523,4.501-2.147,10.074,0.956,14.197l9.153,12.162l-0.297,0.27 l-7.187-2.549c-3.502-1.242-7.279-1.046-10.637,0.552c-0.098,0.047-0.197,0.096-0.293,0.148l-59.57,31.433l-8.047-2.854 c-6.472-2.296-13.451-1.934-19.651,1.021c-5.588,2.662-9.923,7.153-12.408,12.75l-5.815-3.472 c-2.582-1.541-4.276-4.138-4.643-7.123l-0.977-7.914c-0.372-3.013-2.415-5.558-5.276-6.574l-3.914-1.388 c-2.786-0.988-4.62-3.637-4.563-6.592L124.51,96.996z M88.29,275.625c-16.662-40.227-16.662-84.533,0-124.759 c5.225-12.613,11.891-24.35,19.823-35.036l-0.215,11.24c-0.183,9.595,5.603,18.226,14.476,21.725l0.372,3.013 c0.979,7.931,5.476,14.83,12.337,18.925l22.061,13.17c0.642,0.384,1.152,0.944,1.474,1.62l0.886,1.859 c1.069,2.245,2.52,4.232,4.274,5.89l-8.714,11.168c-0.53,0.68-0.947,1.44-1.236,2.252l-4.971,14.017 c-2.395,6.754-1.457,14.35,2.509,20.319l12.347,18.581c1.188,1.787,1.469,4.063,0.751,6.086l-6.628,18.686 c-3.015,8.504-4.272,17.382-3.734,26.388l1.283,21.483c0.357,5.972,4.203,11.199,9.84,13.334c1.755,0.665,3.579,0.996,5.397,0.996 c2.177,0,4.347-0.475,6.387-1.419c3.742-1.734,6.563-4.83,7.942-8.718l5.965-16.822l10.064-2.54 c5.992-1.512,11.243-5.135,14.783-10.2l8.115-11.611l3.068,1.088c6.694,2.375,14.114-0.102,18.042-6.021l8.203-12.364 c4.964-7.482,5.649-17.165,1.787-25.271l-1.585-3.33c-2.954-6.201-8.145-10.878-14.617-13.174l-2.505-0.888 c-0.951-0.338-1.713-1.024-2.147-1.937l-10.737-22.539c-4.308-9.044-11.881-15.869-21.323-19.218l-25.935-9.198 c-0.951-0.338-1.715-1.025-2.148-1.937l-0.886-1.859c-1.688-3.542-4.361-6.479-7.73-8.49l-2.293-1.369l0.392-1.104 c0.864-2.436,2.625-4.39,4.958-5.502c2.333-1.112,4.959-1.248,7.397-0.384l3.387,1.201c-0.781,3.741,1.203,7.614,4.875,9.077 c0.974,0.388,1.977,0.572,2.964,0.572c3.185,0,6.198-1.912,7.45-5.052l1.366-3.429l59.385-31.335l7.503,2.661 c4.849,1.72,10.221,0.635,14.021-2.827l2.663-2.425c5.339-4.863,6.091-12.883,1.748-18.653l-6.203-8.243l12.452,1.197 c3.667,0.353,7.093-1.834,8.322-5.3l2.486-7.009c0.711-2.004,0.596-4.208-0.317-6.128c-0.914-1.92-2.554-3.397-4.558-4.108 L253,67.662c-0.825-0.293-1.692-0.448-2.569-0.461l-20.041-0.278c0.77-3.844-1.381-7.77-5.184-9.119l-6.74-2.391 c-4.28-1.518-8.739-2.082-13.133-1.722c11.083-2.356,22.318-3.546,33.555-3.546c21.133,0,42.266,4.165,62.379,12.496 c30.138,12.484,55.283,33.203,73.006,59.726l-5.13,2.444c-3.726,1.775-6.538,4.896-7.917,8.785l-4.189,11.809 c-0.728,2.053-2.213,3.699-4.178,4.637c-1.073,0.511-2.262,0.784-3.45,0.793l-12.009-1.004 c-8.962-0.75-17.318,4.648-20.323,13.121l-2.875,8.106c-1.257,3.546-1.418,7.21-0.698,10.647 c-3.609,1.472-6.914,3.774-9.619,6.851l-8.732,9.929c-3.551,4.038-6.263,8.655-8.06,13.724c-4.404,12.417-2.68,26.38,4.611,37.352 l0.611,0.919c5.006,7.534,12.457,13.348,20.979,16.37l0.419,0.149c5.029,1.783,7.669,7.326,5.885,12.354l-6.621,18.665 c-2.513,7.086-3.542,14.482-3.061,21.985l1.501,23.4c0.314,4.892,2.017,9.498,4.771,13.362c-4.823,2.586-9.798,4.948-14.922,7.071 c-40.224,16.662-84.532,16.662-124.759,0C136.282,347.181,104.953,315.851,88.29,275.625z M177.068,250.736l-12.347-18.581 c-1.188-1.788-1.469-4.064-0.751-6.086l4.536-12.791l10.112-12.959l18.085,6.414c5.405,1.918,9.741,5.824,12.207,11.002 l10.737,22.538c2.276,4.778,6.275,8.383,11.264,10.153l2.505,0.888c2.436,0.864,4.39,2.625,5.5,4.958l1.585,3.33 c1.454,3.051,1.196,6.695-0.672,9.511l-7.953,11.985l-3.067-1.088c-6.279-2.227-13.25-0.193-17.348,5.058 c-0.087,0.111-0.17,0.223-0.25,0.339l-8.591,12.292c-1.333,1.907-3.308,3.27-5.564,3.839l-14.224,3.589 c-2.6,0.656-4.699,2.568-5.595,5.093l-6.083,17.155l-1.049-17.563c-0.409-6.851,0.546-13.604,2.84-20.073l6.628-18.686 C181.972,264.301,181.034,256.706,177.068,250.736z M333.69,265.068c-2.953-6.2-8.145-10.878-14.614-13.173l-0.419-0.149 c-5.277-1.872-9.888-5.47-12.987-10.133l-0.611-0.919c-4.513-6.792-5.58-15.435-2.854-23.12c1.113-3.137,2.791-5.994,4.989-8.494 l8.732-9.929c2.628-2.989,6.75-4.06,10.501-2.73l12.823,4.548c4.674,1.658,8.813,4.557,11.967,8.383l8.757,10.621 c6.144,7.45,16.162,10.736,25.525,8.375l4.931-1.244c1.86-0.468,3.796-0.378,5.602,0.263l5.155,1.829 c-1.57,15.763-5.469,31.382-11.702,46.429c-12.441,30.035-33.06,55.106-59.451,72.818c-1.516-1.636-2.469-3.763-2.616-6.058 l-1.501-23.4c-0.341-5.323,0.389-10.571,2.172-15.599l6.621-18.665C337.006,278.247,336.644,271.268,333.69,265.068z M386.507,211.558l-4.931,1.244c-3.385,0.854-7.011-0.333-9.233-3.029l-8.757-10.62c-1.703-2.064-3.598-3.943-5.633-5.648 l5.841-6.022l37.908,16.497c0.165,2.826,0.255,5.653,0.269,8.482l-0.58-0.205C396.59,210.553,391.445,210.313,386.507,211.558z M365.105,170.567c-3.061-1.332-6.629-0.627-8.953,1.769l-11.025,11.367c-1.026,1.058-2.587,1.423-3.976,0.93l-9.538-3.383 c-1.964-0.697-2.995-2.861-2.299-4.825l2.875-8.106c0.573-1.616,2.183-2.644,3.876-2.502l12.31,1.029 c0.172,0.014,0.343,0.024,0.515,0.027c3.757,0.077,7.491-0.741,10.864-2.347c5.834-2.779,10.236-7.663,12.395-13.752l4.109-11.582 l6.294-2.998c2.533,4.745,4.849,9.639,6.934,14.675c4.684,11.307,8.05,22.936,10.101,34.707L365.105,170.567z M310.562,477.795 c0.205,0.001,0.389,0.114,0.479,0.295l8.938,17.876H157.797l8.937-17.876c0.09-0.178,0.277-0.295,0.478-0.295H310.562z M229.801,461.763v-35.365c3.027,0.131,6.056,0.208,9.086,0.208s6.058-0.077,9.086-0.208v35.365H229.801z M421.086,288.715 c-20.158,48.667-58.062,86.571-106.73,106.73c-46.19,19.133-96.823,20.093-143.466,2.908l6.956-16.799 c19.826,7.214,40.429,10.83,61.04,10.829c23.209-0.001,46.426-4.576,68.515-13.726c44.183-18.302,78.594-52.712,96.895-96.895 c18.3-44.183,18.302-92.848,0-137.031c-17.278-41.712-48.92-74.708-89.583-93.668l6.957-16.799 c45.144,20.828,80.278,57.315,99.413,103.514C441.245,186.443,441.244,240.047,421.086,288.715z"/> </g> </g> <g> <g> <path d="M355.72,122.066c-3.131-3.131-8.207-3.131-11.337,0l-8.551,8.551c-3.131,3.131-3.131,8.206,0,11.337 c1.566,1.565,3.617,2.348,5.668,2.348s4.103-0.782,5.668-2.348l8.551-8.551C358.851,130.272,358.851,125.197,355.72,122.066z"/> </g> </g> </g>
</svg>